# xmcd CD database file
#
# Track frame offsets:
#	150
#	19084
#	49648
#	57211
#	80530
#	94392
#	119159
#	132080
#	154317
#	176893
#	206871
#	223493
#	254157
#	279170
#	321038
#
# Disc length: 4431 seconds
#
# Revision: 0
# Processed by: cddbd v1.5.2PL0 Copyright (c) Steve Scherf et al.
# Submitted via: CDex 1.79
#
DISCID=ec114d0f
DTITLE=Quadro Noevo - Tango
DYEAR=1900
DGENRE=Jazz
TTITLE0=por una cabeza
TTITLE1=garcias tango
TTITLE2=cancion de ausencia
TTITLE3=la cumparsita
TTITLE4=buscandote
TTITLE5=buenos aires taxi drive
TTITLE6=casa de los suenos
TTITLE7=el dia que me quieras
TTITLE8=taquito militar
TTITLE9=el titiritero
TTITLE10=gallo ciego
TTITLE11=vuelvo al sur
TTITLE12=fuga y mysterio
TTITLE13=como la vida cambia
TTITLE14=el cielo
EXTD=
EXTT0=
EXTT1=
EXTT2=
EXTT3=
EXTT4=
EXTT5=
EXTT6=
EXTT7=
EXTT8=
EXTT9=
EXTT10=
EXTT11=
EXTT12=
EXTT13=
EXTT14=
PLAYORDER=
